<svg width="47" height="40" viewBox="0 0 47 40" fill="none" xmlns="http://www.w3.org/2000/svg">
<g clip-path="url(#clip0_16_120)" filter="url(#filter0_d_16_120)">
<path d="M42.2102 3.73889C41.9521 3.56363 41.6104 3.57255 41.3612 3.76141C41.034 4.01022 40.5015 4.20763 39.9284 4.35971C41.421 2.68252 41.4531 1.56262 41.437 1.30481C41.4203 1.03889 41.2605 0.802877 41.0198 0.689329C40.7785 0.575123 40.4959 0.60298 40.2808 0.7593C38.602 1.98317 36.9297 2.24164 35.9351 2.26767C34.4087 0.802877 32.4258 0 30.3164 0C25.7994 0 22.1246 3.73465 22.1246 8.32503C22.1246 8.71949 22.152 9.11402 22.2068 9.50423C14.3786 9.41533 8.02156 1.8928 7.95609 1.81428C7.80335 1.63112 7.57094 1.5333 7.33349 1.55435C7.09604 1.57512 6.88353 1.71038 6.76462 1.91744C4.51167 5.83707 6.01918 9.2797 7.39721 11.2507C7.15334 11.1204 6.95578 10.9919 6.83796 10.9048C6.61903 10.7413 6.32676 10.7141 6.08078 10.8351C5.83517 10.9565 5.67821 11.205 5.67354 11.4795C5.61267 15.2142 7.40537 17.3537 9.09055 18.5365C8.86593 18.5151 8.63774 18.5989 8.48187 18.7689C8.30668 18.9599 8.24515 19.2295 8.32061 19.4776C9.48466 23.2994 12.3434 24.5977 14.1625 25.0383C10.4223 27.9583 4.91855 27.0187 4.85767 27.0079C4.52552 26.9491 4.19695 27.1243 4.06171 27.4335C3.9264 27.7423 4.01899 28.1043 4.28669 28.3089C8.23444 31.3306 12.9561 32 16.3671 32C18.9469 31.9996 20.7776 31.6165 20.9527 31.5783C38.2293 27.4724 38.7156 11.6012 38.6761 9.0001C41.9194 5.97519 42.4263 4.82311 42.5046 4.53825C42.5872 4.23585 42.469 3.91458 42.2102 3.73889ZM37.4437 8.15153C37.2814 8.30149 37.1956 8.51747 37.2101 8.73843C37.2561 9.4407 38.1396 25.9912 20.6302 30.1525C20.5509 30.1693 13.5908 31.6258 7.55701 28.628C10.1062 28.557 13.7617 27.8873 16.3083 25.0198C16.5006 24.8038 16.5472 24.4942 16.4276 24.2308C16.3094 23.9698 16.0495 23.8023 15.764 23.8023C15.7615 23.8023 15.7591 23.8023 15.7566 23.8023C15.7203 23.8256 11.8917 23.7981 10.1393 20.1456C10.8452 20.1855 11.7155 20.142 12.4086 19.8217C12.6941 19.6896 12.8628 19.389 12.8276 19.0756C12.7924 18.7625 12.561 18.5073 12.2534 18.4423C12.0573 18.4009 7.79555 17.4451 7.19927 12.7823C7.84608 13.0657 8.67303 13.2978 9.49174 13.1725C9.773 13.13 10.0033 12.9272 10.0827 12.6534C10.1621 12.3796 10.0752 12.084 9.86056 11.8969C9.6783 11.7377 5.67566 8.1701 7.57342 3.56933C9.63346 5.73705 15.736 11.371 23.1288 10.9451C23.3457 10.9326 23.5457 10.8234 23.6745 10.6477C23.8031 10.4721 23.8469 10.2483 23.7938 10.0369C23.6539 9.47777 23.5827 8.90162 23.5827 8.32503C23.5827 4.54074 26.6035 1.4623 30.3164 1.4623C32.1325 1.4623 33.8362 2.18914 35.1128 3.50938C35.247 3.64822 35.431 3.72821 35.6236 3.73143C36.396 3.7421 37.6665 3.65108 39.1011 3.07413C38.6871 3.59076 38.0791 4.21048 37.1846 4.91487C36.9318 5.11411 36.8389 5.45614 36.956 5.75635C37.0735 6.05729 37.3764 6.24725 37.6932 6.21866C37.863 6.20513 38.7295 6.12836 39.7084 5.91596C39.1751 6.49284 38.444 7.22867 37.4437 8.15153Z" fill="#42434B"/>
</g>
<defs>
<filter id="filter0_d_16_120" x="0" y="0" width="46.5305" height="40" filterUnits="userSpaceOnUse" color-interpolation-filters="sRGB">
<feFlood flood-opacity="0" result="BackgroundImageFix"/>
<feColorMatrix in="SourceAlpha" type="matrix" values="0 0 0 0 0 0 0 0 0 0 0 0 0 0 0 0 0 0 127 0" result="hardAlpha"/>
<feOffset dy="4"/>
<feGaussianBlur stdDeviation="2"/>
<feComposite in2="hardAlpha" operator="out"/>
<feColorMatrix type="matrix" values="0 0 0 0 0 0 0 0 0 0 0 0 0 0 0 0 0 0 0.25 0"/>
<feBlend mode="normal" in2="BackgroundImageFix" result="effect1_dropShadow_16_120"/>
<feBlend mode="normal" in="SourceGraphic" in2="effect1_dropShadow_16_120" result="shape"/>
</filter>
<clipPath id="clip0_16_120">
<rect width="38.5306" height="32" fill="white" transform="translate(4)"/>
</clipPath>
</defs>
</svg>
